<?xml version="1.0" encoding="UTF-8" standalone="no"?>
<!-- Created with Inkscape (http://www.inkscape.org/) -->

<svg
   width="191.57899mm"
   height="63.423004mm"
   viewBox="0 0 191.57899 63.423004"
   version="1.1"
   id="svg1"
   xml:space="preserve"
   xmlns="http://www.w3.org/2000/svg"
   xmlns:svg="http://www.w3.org/2000/svg"><defs
     id="defs1" /><g
     id="layer2"
     transform="translate(-8.3183558,-173.43127)"><path
       d="m 161.925,173.43127 c 6e-5,2.06641 -1.67496,3.74167 -3.74137,3.74189 -2.06662,6e-5 -3.74195,-1.67527 -3.74189,-3.74189 H 16.06827 c -4.293504,0 -7.7499147,3.45642 -7.7499147,7.74992 v 47.92317 c 0,4.29351 3.4564107,7.74992 7.7499147,7.74992 h 138.37347 c -6e-5,-2.06662 1.67527,-3.74195 3.74189,-3.74189 2.06641,2.2e-4 3.74143,1.67548 3.74137,3.74189 h 30.22244 c 4.29351,0 7.74992,-3.45641 7.74992,-7.74992 v -47.92317 c 0,-4.2935 -3.45641,-7.74992 -7.74992,-7.74992 z m -3.74189,8.36849 h 0.001 c 0.68,0 1.23197,0.55248 1.23197,1.23248 0,0.68 -0.552,1.23196 -1.233,1.23196 -0.681,0 -1.23197,-0.55196 -1.23197,-1.23196 v -0.001 c 0.001,-0.68 0.55197,-1.23145 1.23197,-1.23145 z m 0,3.68504 h 0.001 c 0.68,0 1.23197,0.55197 1.23197,1.23197 0,0.681 -0.552,1.23248 -1.233,1.23248 -0.68,0 -1.23197,-0.55248 -1.23197,-1.23248 v -5.2e-4 c 0.001,-0.68 0.55197,-1.23145 1.23197,-1.23145 z m 0,3.68505 h 0.001 c 0.68,0 1.23197,0.55197 1.23197,1.23196 0,0.681 -0.552,1.23197 -1.233,1.23197 -0.68,0 -1.23197,-0.55197 -1.23197,-1.23197 v -0.001 c 0.001,-0.68 0.55197,-1.23093 1.23197,-1.23093 z m 0,3.68505 h 0.001 c 0.68,0.001 1.23197,0.55196 1.23197,1.23196 0,0.681 -0.552,1.23197 -1.233,1.23197 -0.68,0 -1.23197,-0.55097 -1.23197,-1.23197 0.001,-0.681 0.55197,-1.23196 1.23197,-1.23196 z m 0,3.68504 h 0.001 c 0.68,0.001 1.23197,0.55197 1.23197,1.23197 0,0.681 -0.552,1.233 -1.233,1.233 -0.68,-0.001 -1.23197,-0.552 -1.23197,-1.233 0.001,-0.68 0.55197,-1.23197 1.23197,-1.23197 z m 0,3.68505 h 0.001 c 0.68,0.001 1.23197,0.552 1.23197,1.233 0,0.68 -0.552,1.23196 -1.233,1.23196 -0.68,-0.001 -1.23197,-0.55196 -1.23197,-1.23196 v -0.001 c 0.001,-0.68 0.55197,-1.23196 1.23197,-1.23196 z m 0,3.68608 h 0.001 c 0.68,0 1.23197,0.55096 1.23197,1.23196 0,0.68 -0.552,1.23197 -1.233,1.23197 -0.68,0 -1.23197,-0.55197 -1.23197,-1.23197 v -0.001 c 0.001,-0.68 0.55197,-1.23093 1.23197,-1.23093 z m 0,3.68504 h 0.001 c 0.68,0 1.23197,0.55197 1.23197,1.23197 0,0.68 -0.552,1.23197 -1.233,1.23197 -0.68,0 -1.23197,-0.55197 -1.23197,-1.23197 v -0.001 c 0.001,-0.68 0.55197,-1.23094 1.23197,-1.23094 z m 0,3.68505 h 0.001 c 0.68,0 1.23197,0.55197 1.23197,1.23197 0,0.68 -0.552,1.23196 -1.233,1.23196 -0.68,0 -1.23197,-0.55196 -1.23197,-1.23196 0.001,-0.681 0.55197,-1.23197 1.23197,-1.23197 z m 0,3.68505 h 0.001 c 0.68,0 1.23197,0.55196 1.23197,1.23196 0,0.681 -0.552,1.23197 -1.233,1.23197 -0.68,0 -1.23197,-0.55097 -1.23197,-1.23197 0,-0.681 0.55197,-1.23196 1.23197,-1.23196 z m 0,3.68504 h 0.001 c 0.68,0 1.23197,0.55197 1.23197,1.23197 0,0.681 -0.552,1.23197 -1.233,1.23197 -0.68,0 -1.23197,-0.55097 -1.23197,-1.23197 0,-0.68 0.55197,-1.23197 1.23197,-1.23197 z m 0,3.68453 h 0.001 c 0.68,0 1.23197,0.55197 1.23197,1.23197 0,0.681 -0.552,1.233 -1.233,1.233 -0.68,-0.001 -1.23197,-0.552 -1.23197,-1.233 0,-0.68 0.55197,-1.23197 1.23197,-1.23197 z m 0,3.68505 h 0.001 c 0.68,0 1.23197,0.552 1.23197,1.233 0,0.68 -0.552,1.23197 -1.233,1.23197 -0.68,0 -1.23197,-0.55197 -1.23197,-1.23197 v -0.001 c 0,-0.68 0.55197,-1.23197 1.23197,-1.23197 z"
       style="font-variation-settings:'wght' 700;fill:#ececec;fill-opacity:1;stroke-width:0"
       id="path142" /><path
       style="font-variation-settings:'wght' 700;display:inline;fill:none;stroke:#333333;stroke-width:1;stroke-dasharray:none"
       d="M 16.068359,175.73242 H 152.59766 c 0.90147,2.19927 3.05338,3.74227 5.58593,3.74219 2.53219,-2.7e-4 4.68449,-1.54302 5.58594,-3.74219 h 28.37695 c 3.02051,0 5.44922,2.42872 5.44922,5.44922 v 47.92188 c 0,3.02051 -2.4287,5.44921 -5.44922,5.44921 h -28.37695 c -0.9018,-2.19862 -3.05475,-3.73996 -5.58594,-3.74023 -2.53129,-8e-5 -4.68412,1.54151 -5.58593,3.74023 H 16.068359 c -3.020503,0 -5.449218,-2.42871 -5.449218,-5.44921 v -47.92188 c 0,-3.0205 2.428718,-5.44922 5.449218,-5.44922 z"
       id="path143" /><path
       d="m 16.882552,186.89954 h 22.803993 v 6.94034 H 24.070767 v 8.27884 h 13.533674 v 6.94035 H 24.070767 v 14.32686 h -7.188215 z m 29.744358,0 h 7.188215 v 29.54604 h 17.152569 v 6.94035 H 46.62691 Z m 28.554579,18.29276 q 0,-3.76761 1.437643,-7.13864 1.437643,-3.37102 3.965911,-5.94886 2.577843,-2.62742 5.948868,-4.11464 3.371025,-1.48722 7.237789,-1.48722 3.817191,0 7.18822,1.48722 3.37102,1.48722 5.94886,4.11464 2.62742,2.57784 4.06506,5.94886 1.48722,3.37103 1.48722,7.13864 0,3.86677 -1.48722,7.23779 -1.43764,3.37103 -4.06506,5.94887 -2.57784,2.52827 -5.94886,3.96591 -3.371029,1.43765 -7.18822,1.43765 -3.866764,0 -7.237789,-1.43765 -3.371025,-1.43764 -5.948868,-3.96591 -2.528268,-2.57784 -3.965911,-5.94887 -1.437643,-3.37102 -1.437643,-7.23779 z m 7.436084,0 q 0,2.42913 0.842757,4.5608 0.89233,2.08211 2.429121,3.71805 1.586364,1.58636 3.618894,2.47869 2.082104,0.89233 4.511225,0.89233 2.329973,0 4.312929,-0.89233 2.032531,-0.89233 3.519751,-2.47869 1.48721,-1.63594 2.32997,-3.71805 0.84276,-2.13167 0.84276,-4.5608 0,-2.47869 -0.89233,-4.61037 -0.84276,-2.13168 -2.37955,-3.71804 -1.48722,-1.63594 -3.519749,-2.52827 -2.03253,-0.89233 -4.412077,-0.89233 -2.379547,0 -4.412077,0.89233 -2.032529,0.89233 -3.56932,2.52827 -1.536791,1.58636 -2.379547,3.71804 -0.842757,2.13168 -0.842757,4.61037 z m 34.800847,0 q 0,-3.76761 1.43764,-7.13864 1.43765,-3.37102 3.96591,-5.94886 2.57785,-2.62742 5.94887,-4.11464 3.37103,-1.48722 7.23779,-1.48722 3.81719,0 7.18822,1.48722 3.37102,1.48722 5.94886,4.11464 2.62742,2.57784 4.06506,5.94886 1.48722,3.37103 1.48722,7.13864 0,3.86677 -1.48722,7.23779 -1.43764,3.37103 -4.06506,5.94887 -2.57784,2.52827 -5.94886,3.96591 -3.37103,1.43765 -7.18822,1.43765 -3.86676,0 -7.23779,-1.43765 -3.37102,-1.43764 -5.94887,-3.96591 -2.52826,-2.57784 -3.96591,-5.94887 -1.43764,-3.37102 -1.43764,-7.23779 z m 7.43608,0 q 0,2.42913 0.84276,4.5608 0.89233,2.08211 2.42912,3.71805 1.58637,1.58636 3.6189,2.47869 2.0821,0.89233 4.51122,0.89233 2.32997,0 4.31293,-0.89233 2.03253,-0.89233 3.51975,-2.47869 1.48721,-1.63594 2.32997,-3.71805 0.84276,-2.13167 0.84276,-4.5608 0,-2.47869 -0.89233,-4.61037 -0.84276,-2.13168 -2.37955,-3.71804 -1.48722,-1.63594 -3.51975,-2.52827 -2.03253,-0.89233 -4.41207,-0.89233 -2.37955,0 -4.41208,0.89233 -2.03253,0.89233 -3.56932,2.52827 -1.53679,1.58636 -2.37955,3.71804 -0.84276,2.13168 -0.84276,4.61037 z m 44.31903,-5.3044 -0.19829,1.83423 1.09062,-1.38807 11.89774,-13.43452 h 9.31989 l -15.07047,16.35938 15.12004,20.12701 h -9.12159 l -11.25328,-15.56621 -1.78466,1.78466 v 13.78155 h -7.28736 v -36.48639 h 7.28736 z"
       id="text417"
       style="font-size:49.5739px;line-height:0.9;font-family:'Josefin Sans';-inkscape-font-specification:'Josefin Sans, @wght=700';font-variation-settings:'wght' 700;text-align:center;letter-spacing:0px;word-spacing:0px;text-anchor:middle;fill:#212178;stroke-width:0.1"
       aria-label="FLOOK" /></g></svg>
